<?xml version="1.0" encoding="utf-8"?>
<!-- Generator: Adobe Illustrator 21.1.0, SVG Export Plug-In . SVG Version: 6.00 Build 0)  -->
<svg version="1.1" id="Слой_1" xmlns="http://www.w3.org/2000/svg" xmlns:xlink="http://www.w3.org/1999/xlink" x="0px" y="0px"
	 viewBox="0 0 109 100" style="enable-background:new 0 0 109 100;" xml:space="preserve">
<style type="text/css">
	.st0{fill:#151515;}
</style>
<title>noun_984556_cc</title>
<desc>Created with Sketch.</desc>
<g id="Page-1">
	<g id="Group-4-Copy-21" transform="translate(-213.000000, -77.000000)">
		<g id="Group-3">
			<g id="Group-2">
				<g id="noun_984556_cc" transform="translate(213.000000, 77.000000)">
					<g id="Group">
						<path id="Shape" class="st0" d="M26.8,82.6c-3,0-5.5,2.5-5.5,5.5c0,3,2.5,5.5,5.5,5.5c3,0,5.5-2.5,5.5-5.5
							C32.3,85.1,29.8,82.6,26.8,82.6z"/>
						<path id="Shape_1_" class="st0" d="M108.3,45.5c0-5.8-4.7-10.5-10.5-10.5l-24.7,0.1l1.6-17.8l0-0.2c0-5.4-4.1-15.3-10.7-15.3
							h-6.5l-3.4,18L38.8,43.6c-1.2,1.7-2.1,3.1-2.9,4.5c-1.2-0.7-2.5-1.1-4-1.1H7.7C3.5,47,0,50.5,0,54.7V92c0,4.2,3.5,7.7,7.7,7.7
							h24.2c2.5,0,4.7-1.2,6.2-3.1c2.2,1.7,4.9,2.6,7.6,2.6h41.4c5.8,0,10.5-4.7,10.5-10.5c0-1.4-0.3-2.7-0.8-3.9
							c4.5-1.2,7.8-5.3,7.8-10.1c0-1.7-0.4-3.4-1.2-4.8c3-1.9,4.9-5.2,4.9-8.8c0-3-1.3-5.8-3.4-7.7
							C107.1,51.3,108.3,48.5,108.3,45.5z M31.9,96.1H7.7c-2.3,0-4.1-1.8-4.1-4.1V54.7c0-2.3,1.8-4.1,4.1-4.1h24.2
							c1,0,2,0.4,2.7,1.1l1.1,41.6C35.2,94.9,33.7,96.1,31.9,96.1z M100.9,54.8c2.4,1.2,3.8,3.5,3.8,6.1c0,2.9-1.8,5.4-4.5,6.4
							l-2.4,0.9l1.7,2c1,1.2,1.6,2.8,1.6,4.4c0,3.8-3.1,6.9-6.9,6.9h-4l2.3,2.9c1,1.2,1.5,2.7,1.5,4.2c0,3.8-3.1,6.9-6.9,6.9H45.7
							c-2.4,0-4.7-1-6.4-2.6l-1.1-41.5c0.8-1.6,1.9-3.4,3.5-5.7l15.8-24.5l3-15.8h3.5c3.8,0,7.1,7.2,7.1,11.7l-2,21.7l28.6-0.1
							c3.8,0,6.9,3.1,6.9,6.9c0,2.6-1.5,4.9-3.8,6.1l-3.2,1.6L100.9,54.8z"/>
						<path id="Shape_2_" class="st0" d="M34.2,29.3c-8.6,0.8-10.4,2.6-11.2,11.2c0,0.5-0.7,0.5-0.8,0c-0.8-8.6-2.6-10.4-11.2-11.2
							c-0.5,0-0.5-0.7,0-0.8c8.6-0.8,10.4-2.6,11.2-11.2c0-0.5,0.7-0.5,0.8,0c0.8,8.6,2.6,10.4,11.2,11.2
							C34.7,28.6,34.7,29.3,34.2,29.3z"/>
						<path id="Shape_3_" class="st0" d="M91.8,7.7c-5.3,0.5-6.5,1.6-6.9,6.9c0,0.3-0.5,0.3-0.5,0c-0.5-5.3-1.6-6.4-6.9-6.9
							c-0.3,0-0.3-0.5,0-0.5c5.3-0.5,6.5-1.6,6.9-6.9c0-0.3,0.5-0.3,0.5,0c0.5,5.3,1.6,6.4,6.9,6.9C92.1,7.2,92.1,7.6,91.8,7.7z"/>
						<path id="Shape_4_" class="st0" d="M106.6,27.3c-4.4,0.4-5.3,1.3-5.7,5.7c0,0.2-0.4,0.2-0.4,0c-0.4-4.4-1.3-5.3-5.7-5.7
							c-0.2,0-0.2-0.4,0-0.4c4.4-0.4,5.3-1.3,5.7-5.7c0-0.2,0.4-0.2,0.4,0c0.4,4.4,1.3,5.3,5.7,5.7
							C106.8,26.9,106.8,27.3,106.6,27.3z"/>
						<path id="Shape_5_" class="st0" d="M49.1,10.5c-5.7,0.5-6.8,1.7-7.4,7.4c0,0.3-0.5,0.3-0.5,0c-0.5-5.6-1.7-6.8-7.4-7.4
							c-0.3,0-0.3-0.5,0-0.5c5.7-0.5,6.8-1.7,7.4-7.4c0-0.3,0.5-0.3,0.5,0c0.5,5.6,1.7,6.8,7.4,7.4C49.4,10,49.4,10.5,49.1,10.5z"/>
					</g>
				</g>
			</g>
		</g>
	</g>
</g>
</svg>
