<?xml version="1.0" encoding="utf-8"?>
<!-- Generator: Adobe Illustrator 21.1.0, SVG Export Plug-In . SVG Version: 6.00 Build 0)  -->
<svg version="1.1" id="Слой_1" xmlns="http://www.w3.org/2000/svg" xmlns:xlink="http://www.w3.org/1999/xlink" x="0px" y="0px"
	 viewBox="0 0 178 102" style="enable-background:new 0 0 178 102;" xml:space="preserve">
<style type="text/css">
	.st0{fill:none;stroke:#151515;stroke-width:3;stroke-linecap:round;stroke-linejoin:round;}
	.st1{fill:#F4C944;stroke:#151515;stroke-width:3;}
	.st2{fill:none;stroke:#151515;stroke-width:3;}
	.st3{fill:#404040;stroke:#404040;stroke-miterlimit:10;}
	.st4{fill:#404040;stroke:#404040;stroke-width:3;stroke-linecap:round;stroke-linejoin:round;}
	.st5{fill:#151515;stroke:#151515;stroke-miterlimit:10;}
</style>
<path class="st0" d="M39.1,34.7L89.9,2L139,34.7"/>
<path class="st1" d="M53,12v30.2l36,25.2l37.2-25.2V12c0-0.6-0.4-1-1-1H54C53.4,11,53,11.5,53,12z"/>
<path class="st2" d="M139.1,35.4V97c0,1.7-1.3,3-3,3H89.3H42.4c-1.7,0-3-1.3-3-3V35.4c0-0.8,0.9-1.3,1.6-0.8l48,32.7l48.6-32.7
	C138.2,34.1,139.1,34.6,139.1,35.4z"/>
<circle class="st3" cx="71" cy="29" r="3.4"/>
<circle class="st3" cx="107" cy="29" r="3.4"/>
<path class="st4" d="M76.4,40.5c0,0,6.4-3.2,11.8,2.2"/>
<path class="st5" d="M175.8,56.2c0.6-0.6,0.6-1.7,0-2.3L173,51l2.8-2.8c0.6-0.6,0.6-1.7,0-2.3s-1.7-0.6-2.3,0l-2.8,2.8l-2.8-2.8
	c-0.6-0.6-1.7-0.6-2.3,0s-0.6,1.7,0,2.3l2.8,2.8l-2.8,2.8c-0.6,0.6-0.6,1.7,0,2.3s1.7,0.6,2.3,0l2.8-2.8l2.8,2.8
	C174.2,56.8,175.2,56.8,175.8,56.2z"/>
<path class="st5" d="M153,23.8c1.8,0,3.2-1.6,3.2-3.6s-1.4-3.6-3.2-3.6s-3.2,1.6-3.2,3.6S151.2,23.8,153,23.8z"/>
<path class="st5" d="M153,94.6c1.8,0,3.2-1.6,3.2-3.6s-1.4-3.6-3.2-3.6s-3.2,1.6-3.2,3.6C149.8,92.9,151.2,94.6,153,94.6z"/>
<path class="st5" d="M2.2,54.9c-0.6,0.6-0.6,1.7,0,2.3L5,60.1l-2.8,2.8c-0.6,0.6-0.6,1.7,0,2.3s1.7,0.6,2.3,0l2.8-2.8l2.8,2.8
	c0.6,0.6,1.7,0.6,2.3,0s0.6-1.7,0-2.3l-2.8-2.8l2.8-2.8c0.6-0.6,0.6-1.7,0-2.3s-1.7-0.6-2.3,0l-2.8,2.8L4.5,55
	C3.8,54.2,2.8,54.2,2.2,54.9z"/>
<path class="st5" d="M25,87.3c-1.8,0-3.2,1.6-3.2,3.6s1.4,3.6,3.2,3.6c1.8,0,3.2-1.6,3.2-3.6S26.8,87.3,25,87.3z"/>
<path class="st5" d="M13.7,16.5c-2,0-3.6,1.6-3.6,3.6s1.6,3.6,3.6,3.6s3.6-1.6,3.6-3.6C17.3,18.1,15.7,16.5,13.7,16.5z"/>
</svg>
